<?xml version="1.0" encoding="UTF-8"?>
<!-- Creator: CorelDRAW -->
<svg xmlns="http://www.w3.org/2000/svg" xmlns:xlink="http://www.w3.org/1999/xlink" xmlns:xodm="http://www.corel.com/coreldraw/odm/2003" xml:space="preserve" width="302px" height="56px" version="1.1" style="shape-rendering:geometricPrecision; text-rendering:geometricPrecision; image-rendering:optimizeQuality; fill-rule:evenodd; clip-rule:evenodd" viewBox="0 0 297.32 55.2">
 <defs>
  <style type="text/css">
   <![CDATA[
    .str1 {stroke:#0457A3;stroke-width:0.32;stroke-miterlimit:22.9256}
    .str0 {stroke:white;stroke-width:0.1;stroke-miterlimit:22.9256}
    .fil3 {fill:none;fill-rule:nonzero}
    .fil1 {fill:#00A143}
    .fil0 {fill:#0457A3}
    .fil4 {fill:#00A143;fill-rule:nonzero}
    .fil5 {fill:#0457A3;fill-rule:nonzero}
    .fil2 {fill:#0457A3;fill-rule:nonzero}
   ]]>
  </style>
 </defs>
 <g id="Capa_x0020_1">
  <metadata id="CorelCorpID_0Corel-Layer"></metadata>
  <g id="_105553352642688">
   <g>
    <path class="fil0" d="M33.09 28.78l0 -0.08c-0.02,-1.45 -0.63,-2.77 -1.61,-3.73 -0.98,-0.96 -2.32,-1.56 -3.79,-1.56l0 0 -0.47 0c-1.41,0.09 -2.67,0.73 -3.58,1.69 -0.92,0.97 -1.48,2.26 -1.48,3.66l0 0.06c-0.01,1.64 0.65,3.02 1.67,3.99 1.02,0.97 2.39,1.53 3.78,1.56l0.04 0 0.31 -0.01c1.4,-0.1 2.75,-0.75 3.72,-1.8 0.88,-0.95 1.44,-2.25 1.41,-3.78l0 0z"></path>
    <path class="fil1" d="M12.71 23.04c0.85,-2.78 2.46,-5.23 4.57,-7.12l-0.1 0.07 -0.01 0c-0.39,0.18 -0.83,0.33 -1.28,0.43 -0.4,0.1 -0.82,0.15 -1.21,0.15 -1.76,0 -3.35,-0.67 -4.5,-1.8 -1.12,-1.11 -1.81,-2.66 -1.81,-4.43 0,-1.11 0.34,-2.14 0.93,-3.08 0.18,-0.3 0.38,-0.58 0.61,-0.85 -2.72,2.26 -5,5.04 -6.69,8.19 -2.05,3.85 -3.22,8.25 -3.22,12.95 0,2.53 0.35,4.98 1.01,7.31 0.4,1.42 0.92,2.8 1.54,4.12 -0.45,-1.5 -0.68,-3 -0.68,-4.46 -0.01,-2.21 0.49,-4.31 1.44,-6.1 0.96,-1.79 2.38,-3.27 4.22,-4.22 1.43,-0.74 3.12,-1.16 5.04,-1.17l0.14 0.01z"></path>
    <path class="fil1" d="M37.86 15.83c2.16,1.9 3.81,4.38 4.68,7.19l0.14 0c1.97,0.01 3.69,0.45 5.14,1.22 1.81,0.96 3.21,2.43 4.15,4.21 0.94,1.78 1.42,3.86 1.42,6.06 -0.01,1.48 -0.23,3.01 -0.7,4.52 0.62,-1.31 1.13,-2.67 1.53,-4.08 0.68,-2.35 1.04,-4.83 1.04,-7.38 0,-4.65 -1.14,-9 -3.15,-12.82 -1.68,-3.18 -3.96,-5.99 -6.7,-8.28 0.23,0.29 0.43,0.58 0.62,0.89 0.54,0.91 0.86,1.91 0.86,2.97 0,1.77 -0.69,3.32 -1.82,4.43 -1.14,1.13 -2.73,1.8 -4.49,1.8 -0.39,0 -0.81,-0.05 -1.22,-0.15 -0.44,-0.1 -0.88,-0.25 -1.27,-0.43l-0.02 -0.01 -0.21 -0.14z"></path>
    <path class="fil0" d="M43.22 27.57c0,4.67 -1.64,8.64 -4.41,11.45 -2.79,2.84 -6.73,4.49 -11.28,4.49l-0.01 0c-0.12,0 -0.23,-0.01 -0.34,-0.01 -0.12,-0.01 -0.24,-0.02 -0.34,-0.02 -4.33,-0.21 -8.05,-1.94 -10.68,-4.77 -2.59,-2.79 -4.12,-6.65 -4.12,-11.16 0,-0.75 0.05,-1.49 0.16,-2.22 0.1,-0.67 0.24,-1.33 0.42,-1.97l-0.05 0c-1.86,0.01 -3.5,0.42 -4.89,1.14 -1.78,0.91 -3.15,2.34 -4.08,4.07 -0.93,1.74 -1.41,3.79 -1.4,5.95 0.01,2.34 0.59,4.82 1.8,7.16 2.51,4.1 6.06,7.53 10.25,9.91 4.06,2.29 8.73,3.61 13.64,3.61l0 0 0.23 0 0.23 -0.01c4.69,-0.16 9.14,-1.53 13.02,-3.8 3.99,-2.34 7.38,-5.63 9.81,-9.56 1.26,-2.39 1.87,-4.93 1.88,-7.33 0,-2.13 -0.47,-4.16 -1.38,-5.89 -0.91,-1.73 -2.26,-3.15 -4.01,-4.08 -1.41,-0.75 -3.08,-1.17 -4.99,-1.18l-0.05 0c0.19,0.64 0.33,1.3 0.43,1.98 0.1,0.73 0.16,1.48 0.16,2.24z"></path>
    <path class="fil0" d="M27.81 11.87c2.08,0 3.86,0.38 5.54,1.06 1.66,0.67 3.23,1.62 4.89,2.76 0.37,0.16 0.78,0.3 1.2,0.4 0.38,0.09 0.77,0.14 1.14,0.14 1.67,0 3.18,-0.64 4.26,-1.71 1.07,-1.05 1.72,-2.51 1.72,-4.19 0,-1 -0.3,-1.94 -0.82,-2.8 -0.58,-0.99 -1.45,-1.88 -2.45,-2.67 -2.28,-1.56 -4.8,-2.79 -7.5,-3.62 -2.61,-0.81 -5.38,-1.24 -8.26,-1.24 -0.27,0 -0.53,0 -0.76,0.01 -0.25,0.01 -0.51,0.02 -0.77,0.03 -2.5,0.15 -4.92,0.63 -7.2,1.4 -2.35,0.79 -4.55,1.88 -6.57,3.23 -1.08,0.81 -2.01,1.73 -2.65,2.76 -0.55,0.89 -0.88,1.87 -0.88,2.91 0,1.68 0.65,3.14 1.72,4.19 1.08,1.07 2.59,1.71 4.26,1.71 0.37,0 0.76,-0.05 1.14,-0.14 0.42,-0.1 0.83,-0.24 1.2,-0.4 1.62,-1.11 3.14,-2.04 4.76,-2.71 1.62,-0.67 3.34,-1.07 5.34,-1.11 0.11,0 0.22,-0.01 0.34,-0.01 0.14,0 0.25,0 0.35,0z"></path>
    <path class="fil1" d="M42.29 23.35l-12.74 0.04c0.82,0.29 1.56,0.75 2.16,1.35 1.04,1.01 1.69,2.42 1.71,3.95l0 0.09 0 0c0.03,1.62 -0.56,2.99 -1.5,4.01 -0.65,0.7 -1.46,1.23 -2.34,1.56 3.98,-0.04 7.97,0.02 11.95,0.03 0.51,-1.22 1.16,-3.21 1.32,-5.61 0.11,-1.65 -0.01,-3.5 -0.56,-5.42z"></path>
   </g>
   <g>
    <path class="fil2" d="M72.82 38.73l9.16 0c1.39,3.06 2.74,4.14 5.03,4.14 2.74,0 4.99,-2.2 4.99,-4.9 0,-0.76 -0.18,-1.62 -0.59,-2.38l-9.43 -20.12c-0.9,-1.88 -2.6,-3.01 -4.62,-3.01 -1.98,0 -3.69,1.13 -4.54,2.97l-9.38 19.89c-0.41,0.85 -0.63,1.75 -0.63,2.61 0,2.78 2.15,4.94 4.89,4.94 2.38,0 3.86,-1.22 5.12,-4.14zm3.01 -7.14l1.53 -3.59 1.52 3.59 -3.05 0z"></path>
    <path id="_1" class="fil2" d="M109.81 25.71l-4.44 -9.92c-0.86,-2.02 -2.83,-3.33 -4.94,-3.33 -2.56,0 -4.36,1.76 -4.85,4.63l-3.42 19.17c-0.04,0.41 -0.09,0.81 -0.09,1.22 0,3.14 2.07,5.39 4.99,5.39 2.56,0 4.45,-1.76 4.94,-4.63l0.81 -4.76 1.97 5.34c1.04,2.79 2.61,4.05 5.03,4.05 2.34,0 4.09,-1.4 5.08,-4.09l1.93 -5.3 1.12 5.61c0.4,2.25 2.38,3.78 4.9,3.78 2.69,0 4.85,-2.12 4.85,-4.81 0,-0.45 -0.05,-1.03 -0.18,-1.66l-3.42 -19.31c-0.27,-1.62 -0.67,-2.47 -1.52,-3.28 -0.86,-0.81 -2.2,-1.35 -3.42,-1.35 -1.84,0 -3.59,1.08 -4.35,2.65l-4.99 10.6z"></path>
    <path id="_2" class="fil2" d="M137.82 18.62c0,-2.43 -0.31,-3.46 -1.3,-4.58 -0.9,-0.99 -2.24,-1.58 -3.68,-1.58 -1.44,0 -2.74,0.59 -3.64,1.62 -1.03,1.12 -1.26,2.02 -1.26,4.54l0 18.54c0,2.07 0.32,3.1 1.26,4.13 0.85,0.95 2.34,1.58 3.68,1.58 1.31,0 2.74,-0.63 3.69,-1.67 0.89,-0.98 1.25,-2.15 1.25,-4.04l0 -18.54z"></path>
    <path id="_3" class="fil2" d="M197.18 27.51c0,8.84 7,15.89 15.8,15.89 8.67,0 15.77,-7.09 15.77,-15.76 0,-8.66 -7.05,-15.67 -15.81,-15.67 -8.76,0 -15.76,6.92 -15.76,15.54zm9.92 0.13c0,-3.19 2.65,-5.75 5.88,-5.75 3.24,0 5.89,2.61 5.89,5.8 0,3.23 -2.65,5.93 -5.89,5.93 -3.23,0 -5.88,-2.7 -5.88,-5.98z"></path>
    <path id="_4" class="fil3 str0" d="M72.82 38.73l9.16 0c1.39,3.06 2.74,4.14 5.03,4.14 2.74,0 4.99,-2.2 4.99,-4.9 0,-0.76 -0.18,-1.62 -0.59,-2.38l-9.43 -20.12c-0.9,-1.88 -2.6,-3.01 -4.62,-3.01 -1.98,0 -3.69,1.13 -4.54,2.97l-9.38 19.89c-0.41,0.85 -0.63,1.75 -0.63,2.61 0,2.78 2.15,4.94 4.89,4.94 2.38,0 3.86,-1.22 5.12,-4.14zm3.01 -7.14l1.53 -3.59 1.52 3.59 -3.05 0z"></path>
    <path id="_5" class="fil3 str0" d="M109.81 25.71l-4.44 -9.92c-0.86,-2.02 -2.83,-3.33 -4.94,-3.33 -2.56,0 -4.36,1.76 -4.85,4.63l-3.42 19.17c-0.04,0.41 -0.09,0.81 -0.09,1.22 0,3.14 2.07,5.39 4.99,5.39 2.56,0 4.45,-1.76 4.94,-4.63l0.81 -4.76 1.97 5.34c1.04,2.79 2.61,4.05 5.03,4.05 2.34,0 4.09,-1.4 5.08,-4.09l1.93 -5.3 1.12 5.61c0.4,2.25 2.38,3.78 4.9,3.78 2.69,0 4.85,-2.12 4.85,-4.81 0,-0.45 -0.05,-1.03 -0.18,-1.66l-3.42 -19.31c-0.27,-1.62 -0.67,-2.47 -1.52,-3.28 -0.86,-0.81 -2.2,-1.35 -3.42,-1.35 -1.84,0 -3.59,1.08 -4.35,2.65l-4.99 10.6z"></path>
    <path id="_6" class="fil3 str0" d="M137.82 18.62c0,-2.43 -0.31,-3.46 -1.3,-4.58 -0.9,-0.99 -2.24,-1.58 -3.68,-1.58 -1.44,0 -2.74,0.59 -3.64,1.62 -1.03,1.12 -1.26,2.02 -1.26,4.54l0 18.54c0,2.07 0.32,3.1 1.26,4.13 0.85,0.95 2.34,1.58 3.68,1.58 1.31,0 2.74,-0.63 3.69,-1.67 0.89,-0.98 1.25,-2.15 1.25,-4.04l0 -18.54z"></path>
    <path id="_7" class="fil3 str0" d="M197.18 27.51c0,8.84 7,15.89 15.8,15.89 8.67,0 15.77,-7.09 15.77,-15.76 0,-8.66 -7.05,-15.67 -15.81,-15.67 -8.76,0 -15.76,6.92 -15.76,15.54zm9.92 0.13c0,-3.19 2.65,-5.75 5.88,-5.75 3.24,0 5.89,2.61 5.89,5.8 0,3.23 -2.65,5.93 -5.89,5.93 -3.23,0 -5.88,-2.7 -5.88,-5.98z"></path>
    <path class="fil4" d="M253.67 39.45c0,-1.03 -0.36,-1.79 -0.77,-2.69l-10.19 -22.14c-0.58,-1.3 -1.84,-2.11 -3.28,-2.11 -1.52,0 -2.65,0.72 -3.28,2.11l-9.92 22.23c-0.4,0.9 -0.76,1.57 -0.76,2.6 0,1.84 1.66,3.28 3.45,3.28 2.16,0 2.88,-1.35 3.6,-3.1 0.31,-0.72 0.63,-1.48 0.94,-2.2l12.03 0 1.04 2.25c0.81,1.7 1.48,3.1 3.63,3.1 1.8,0 3.51,-1.44 3.51,-3.33zm-10.56 -7.95l-7.18 0 3.55 -8.62 3.63 8.62z"></path>
    <path id="_1_0" class="fil4" d="M275.33 23.65c0,-4.05 -2.47,-8.45 -6.33,-9.97 -1.57,-0.63 -4.08,-1.08 -5.79,-1.08l-5.88 0c-2.56,0 -3.95,1.44 -3.95,4l0 22.4c0,2.07 1.21,3.87 3.41,3.87 2.24,0 3.46,-1.76 3.46,-3.87l0 -0.76 0 -3.82 3.32 0c3.19,0 5.39,-0.4 7.9,-2.51 2.43,-2.07 3.86,-5.08 3.86,-8.26zm-6.64 0.04c0,2.02 -1.44,3.91 -3.46,4.31 -0.72,0.14 -1.48,0.14 -2.24,0.14l-2.74 0 0 -8.98 2.69 0c1.44,0 3.05,0.09 4.18,1.07 0.94,0.86 1.57,2.2 1.57,3.46z"></path>
    <path id="_2_1" class="fil4" d="M297.32 23.65c0,-4.05 -2.47,-8.45 -6.34,-9.97 -1.57,-0.63 -4.08,-1.08 -5.79,-1.08l-5.88 0c-2.56,0 -3.95,1.44 -3.95,4l0 22.4c0,2.07 1.21,3.87 3.41,3.87 2.25,0 3.46,-1.76 3.46,-3.87l0 -0.76 0 -3.82 3.32 0c3.19,0 5.39,-0.4 7.9,-2.51 2.43,-2.07 3.87,-5.08 3.87,-8.26zm-6.65 0.04c0,2.02 -1.44,3.91 -3.46,4.31 -0.72,0.14 -1.48,0.14 -2.24,0.14l-2.74 0 0 -8.98 2.69 0c1.44,0 3.06,0.09 4.18,1.07 0.94,0.86 1.57,2.2 1.57,3.46z"></path>
    <path class="fil5 str1" d="M153.67 24.47l7.95 -0.02c1.48,0 2.74,0.42 3.74,1.13 0.91,0.63 1.6,1.5 2.06,2.5 0.46,0.98 0.69,2.1 0.69,3.26 -0.01,1.81 -0.58,3.73 -1.78,5.43 -1.33,1.89 -3.21,3.6 -5.51,4.79 -2.04,1.06 -4.41,1.72 -7.03,1.73l0 0c-4.28,0 -8.23,-1.77 -11.1,-4.62 -2.86,-2.83 -4.65,-6.73 -4.65,-11.01 0,-4.32 1.75,-8.21 4.58,-11.02 2.84,-2.82 6.77,-4.56 11.09,-4.56 0.69,0 1.4,0.05 2.11,0.14 0.68,0.09 1.35,0.23 2.01,0.4l0 0c1.37,0.35 3.4,1.16 4.87,2.36 1.15,0.95 1.97,2.14 1.97,3.57 0,1.17 -0.46,2.19 -1.21,2.93 -0.75,0.74 -1.8,1.19 -2.95,1.19 -0.27,0 -0.55,-0.04 -0.83,-0.1 -0.28,-0.07 -0.56,-0.17 -0.82,-0.28l-0.08 -0.04 -0.06 -0.04c-0.83,-0.56 -1.61,-1.04 -2.41,-1.36 -0.77,-0.31 -1.59,-0.49 -2.56,-0.49 -2.01,0 -3.85,0.83 -5.19,2.16 -1.32,1.32 -2.15,3.14 -2.15,5.14 0,2.21 0.76,4.06 2.04,5.37 1.29,1.31 3.13,2.07 5.26,2.07l0 0.01c1.71,-0.07 2.86,-0.45 3.56,-1.09 0.47,-0.44 0.75,-1.04 0.86,-1.77l-3.05 0 0 0c-0.48,0.01 -0.97,0.01 -1.45,0.01 -0.98,-0.01 -1.95,-0.41 -2.67,-1.09 -0.72,-0.69 -1.2,-1.67 -1.19,-2.85l0 -0.07c0.02,-1.04 0.45,-1.98 1.15,-2.67 0.7,-0.68 1.65,-1.11 2.7,-1.11l0.05 0z"></path>
    <path class="fil5 str1" d="M182.86 24.47l7.95 -0.02c1.48,0 2.74,0.42 3.74,1.13 0.91,0.63 1.6,1.5 2.06,2.5 0.45,0.98 0.69,2.1 0.69,3.26 -0.01,1.81 -0.58,3.73 -1.78,5.43 -1.33,1.89 -3.21,3.6 -5.51,4.79 -2.04,1.06 -4.42,1.72 -7.03,1.73l0 0c-4.28,0 -8.23,-1.77 -11.11,-4.62 -2.85,-2.83 -4.64,-6.73 -4.64,-11.01 0,-4.32 1.75,-8.21 4.58,-11.02 2.84,-2.82 6.76,-4.56 11.09,-4.56 0.69,0 1.39,0.05 2.1,0.14 0.69,0.09 1.36,0.23 2.01,0.4l0 0c1.37,0.35 3.41,1.16 4.87,2.36 1.16,0.95 1.98,2.14 1.98,3.57 0,1.17 -0.46,2.19 -1.21,2.93 -0.75,0.74 -1.8,1.19 -2.95,1.19 -0.27,0 -0.56,-0.04 -0.83,-0.1 -0.28,-0.07 -0.56,-0.16 -0.82,-0.28l-0.09 -0.04 -0.06 -0.04c-0.83,-0.56 -1.6,-1.04 -2.4,-1.36 -0.77,-0.31 -1.59,-0.49 -2.56,-0.49 -2.01,0 -3.85,0.83 -5.19,2.16 -1.33,1.32 -2.16,3.14 -2.16,5.14 0,2.21 0.76,4.06 2.05,5.37 1.29,1.31 3.12,2.07 5.26,2.07l0 0.01c1.71,-0.07 2.86,-0.45 3.56,-1.09 0.47,-0.44 0.75,-1.04 0.86,-1.77l-3.05 0 0 0c-0.49,0.01 -0.97,0.01 -1.45,0.01 -0.99,-0.01 -1.95,-0.41 -2.67,-1.09 -0.73,-0.69 -1.2,-1.67 -1.19,-2.85l0 -0.07c0.01,-1.04 0.45,-1.98 1.15,-2.67 0.69,-0.68 1.65,-1.11 2.7,-1.11l0.05 0z"></path>
   </g>
  </g>
 </g>
</svg>
